Coordinates
version=1
nRows=17
nColumns=34
inDegrees=yes

Units are S.I. units (second, meters, Newtons, ...)
If the header above contains a line with 'inDegrees', this indicates whether rotational values are in degrees (yes) or radians (no).

endheader
time	pelvis_tilt	pelvis_list	pelvis_rotation	pelvis_tx	pelvis_ty	pelvis_tz	hip_flexion_r	hip_adduction_r	hip_rotation_r	knee_angle_r	ankle_angle_r	subtalar_angle_r	mtp_angle_r	hip_flexion_l	hip_adduction_l	hip_rotation_l	knee_angle_l	ankle_angle_l	subtalar_angle_l	mtp_angle_l	lumbar_extension	lumbar_bending	lumbar_rotation	arm_flex_r	arm_add_r	arm_rot_r	elbow_flex_r	pro_sup_r	arm_flex_l	arm_add_l	arm_rot_l	elbow_flex_l	pro_sup_l
      1.73333330	    -24.07130650	      3.77534860	      0.85908839	     -5.34435334	      0.86352672	     -0.88958070	     -2.95274671	      5.81098649	     -8.75975229	     39.13967434	    -27.15421750	    -18.49301847	      0.00000000	     62.30026720	      8.06410201	    -11.68406284	     65.94633191	     17.47211416	    -18.39057013	      0.00000000	    -18.19686021	     -1.69262864	      5.92503113	     11.57150746	    -13.01539465	     -2.86977979	     67.34410096	    119.60957506	    -14.19900108	    -15.07437560	    -13.56248676	     34.39039184	     69.47055116
      1.75000000	    -24.15869222	     -1.93510798	     -1.39238819	     -5.31145940	      0.85941597	     -0.88154430	     15.43579007	     11.71257530	     -2.89868389	     65.30039315	    -38.62752913	    -34.62266338	      0.00000000	     57.95885989	      0.77028955	    -11.74536935	     64.98335670	     17.52127650	    -18.65886899	      0.00000000	    -17.26821610	      3.36816923	      8.24038677	      6.21800520	    -11.13813029	     -4.16956097	     53.09719026	    119.53131641	     -5.57332384	     -9.75074824	     -8.46591979	     31.69479062	     73.14406959
      1.76666670	    -27.65781477	      0.52701064	     -2.98288844	     -5.28544852	      0.83760834	     -0.86987560	     46.00409011	     12.80619782	      7.93396825	    100.13652978	    -39.21554064	    -35.00000000	      0.00000000	     58.39471768	     -0.27755393	    -16.89235658	     64.67189716	     18.44932983	    -21.95745543	      0.00000000	    -11.01481818	      0.15663087	      5.92236625	     -0.01978998	     -7.46780730	     -4.50009194	     41.31768756	    119.25236050	     -2.92930865	     -8.22177476	     -4.14583744	     37.43207078	     75.61775183
      1.78333330	    -22.34341721	      5.72355315	      4.66531252	     -5.23678215	      0.82365851	     -0.86637311	     50.71682679	     19.77828902	     39.99999995	    125.87293435	    -32.15231243	    -34.40786247	      0.00000000	     48.21588907	      8.33901910	    -17.59042841	     64.78877021	     23.86044204	    -23.60117966	      0.00000000	    -13.93944559	     -5.43481277	     -6.91041047	     -6.11105931	     -2.42939554	     -6.46495351	     28.98033724	    118.41623051	     -0.62184656	    -10.38180345	      1.77672779	     46.25760699	     78.62486107
      1.80000000	    -13.54352293	     -8.99746704	     31.27474571	     -5.19479182	      0.81707666	     -0.89821834	     42.91299072	     21.40399517	     39.99999995	    136.19066304	     50.00000000	     35.00000000	      0.00000000	     42.68147206	     10.16411344	     11.25482572	     74.61764764	     33.64263977	    -18.39080364	      0.00000000	    -13.57184756	     17.41850852	    -33.19487502	    -12.68588402	     -4.27821981	     -8.11603601	     20.19893543	    114.34249846	      4.17687240	     -5.44236046	     -0.65278059	     49.87509550	     94.76146757
      1.81666670	     -8.30964777	     -7.80045867	     40.41301253	     -5.15699169	      0.82166986	     -0.90950710	     34.92802378	     15.40242809	     39.99999995	    140.00000000	     50.00000000	     35.00000000	      0.00000000	     33.65088519	     10.22272477	     19.15466833	     75.31760825	     39.66516426	    -14.79030616	      0.00000000	    -15.60923473	     21.06144841	    -45.40756214	    -18.21803161	     -5.60081431	     -8.10505562	     15.16738211	    114.11766412	     12.28494098	     -4.41831556	      2.82799744	     50.66588912	     96.16391222
      1.83333330	     -6.15004378	     -0.32777890	     33.30213618	     -5.11585228	      0.83843197	     -0.90622599	     32.07293852	      8.32827527	     39.99999995	    140.00000000	     50.00000000	     35.00000000	      0.00000000	     20.55852545	      9.42377250	     12.06030526	     68.58663350	     40.82662999	    -15.56497885	      0.00000000	    -25.07948299	     14.96830159	    -44.34114461	    -21.49542290	     -7.39085625	     -7.49490956	     12.53291901	    113.80204293	     21.67502696	     -4.70712125	      4.11272955	     52.65439463	     97.57810530
      1.85000000	     -9.24662950	      9.22170545	     13.61287793	     -5.07397071	      0.84447856	     -0.87398638	     46.24036696	      3.10760121	     39.99999995	    140.00000000	     -9.47652567	    -14.77608250	      0.00000000	     12.43547763	     12.46439433	     -9.00980340	     55.91866428	     39.69375359	    -13.14446292	      0.00000000	    -29.33000277	     -2.97012677	    -34.22657656	    -27.28198071	     -7.94561856	     -6.34938212	     14.18994650	    112.84442551	     31.35678351	     -6.64079049	      7.79894632	     56.74950053	     99.83163913
      1.86666670	    -17.75348726	      9.24239887	      9.72626731	     -5.04724825	      0.83321642	     -0.85561939	     64.00022528	     -0.52747894	     25.31907013	    139.13086494	    -13.04598919	    -19.46757936	      0.00000000	     18.77941585	     11.42279699	    -14.92675299	     52.81033429	     39.68501283	     -9.74551978	      0.00000000	    -21.41449426	     -6.71227273	    -33.40864133	    -33.92493059	     -8.68396568	     -6.91985730	     16.62622727	    111.26397342	     39.16351527	     -8.39310932	      9.75619008	     64.04613922	    101.30079081
      1.88333330	    -21.55661310	      4.99090221	      6.62597987	     -5.01637076	      0.83759047	     -0.84697850	     70.59747506	      2.39320967	     13.55613997	    131.32175962	    -10.92343330	    -23.71048619	      0.00000000	     19.33535246	      6.32061424	    -16.71242005	     47.57833988	     38.00479934	     -8.34863782	      0.00000000	    -18.82320259	     -1.56304826	    -32.76918371	    -36.83378554	    -10.77277842	     -8.13369598	     18.63488225	    110.22231322	     47.95248333	    -10.56454105	     10.34897515	     74.20032080	    102.30526738
      1.90000000	    -23.17290722	      1.80188038	      4.37627972	     -4.98238101	      0.84062687	     -0.84056017	     75.50754068	      5.27516028	      8.22037106	    124.48959667	      1.54417877	    -24.13972490	      0.00000000	     15.89304016	      2.61162111	    -17.64780558	     40.88495683	     35.99264019	     -7.63443351	      0.00000000	    -18.35948876	      2.75610433	    -32.53674181	    -38.41259775	    -11.79749893	    -10.28943962	     17.74695130	    109.53612160	     57.93757287	    -12.93399125	     12.49325071	     83.58318851	    103.07718656
      1.91666670	    -23.46595346	     -0.63121165	      2.54999063	     -4.94283434	      0.84341740	     -0.83623561	     80.29798771	      7.28466165	      5.94369996	    116.87660399	     13.35899527	    -22.77140624	      0.00000000	      9.20559418	      0.48287836	    -18.32134716	     31.76231108	     34.01835831	     -7.08744403	      0.00000000	    -18.46004599	      6.23465601	    -32.59024731	    -39.18349527	    -12.48700200	    -12.78484810	     15.82197970	    108.90142843	     66.42585755	    -15.30556803	     14.63889004	     91.51449446	    103.66751529
      1.93333330	    -23.20308183	     -3.09082930	      0.96257018	     -4.89478562	      0.84671446	     -0.83376640	     83.64167154	      8.48589112	      4.33243209	    106.87013166	     16.13620245	    -22.46409402	      0.00000000	      0.78009000	     -0.90993043	    -18.47090665	     20.98961336	     30.55648544	     -7.09453725	      0.00000000	    -17.73627005	     10.12499781	    -33.07797124	    -38.92934537	    -13.80445167	    -15.86550337	     13.24821537	    107.90783144	     69.82780847	    -18.42310887	     15.01672704	     99.39805212	    104.16863745
      1.95000000	    -23.45994069	     -5.83049835	     -0.40807025	     -4.84064116	      0.84854385	     -0.83178649	     85.04753741	      9.11164250	      2.27480927	     94.88784044	     12.55878002	    -24.18657349	      0.00000000	     -6.44217634	     -2.61776616	    -18.27174662	     11.86780859	     25.57373354	     -7.74159104	      0.00000000	    -15.72798054	     14.92449476	    -33.30241382	    -38.16929230	    -15.44273949	    -18.36404356	     11.25944981	    106.56361179	     67.29286244	    -21.37593888	     13.18667985	    107.99881704	    104.60147586
      1.96666670	    -24.40407161	     -7.88006815	     -1.28461180	     -4.78480247	      0.85218859	     -0.82883436	     83.92900145	      8.79734602	      0.16092420	     82.09783911	      7.63930322	    -25.82578881	      0.00000000	    -10.81954119	     -4.17948581	    -18.93592783	      6.69095671	     17.94008675	     -8.09123755	      0.00000000	    -13.31785860	     19.29118337	    -32.44847430	    -36.21057578	    -16.47443441	    -19.58606509	      9.55858181	    105.12137824	     60.25238673	    -21.49439095	     11.42007687	    116.19470861	    105.18259328
      1.98333330	    -24.97057735	     -8.33732269	     -1.81282020	     -4.72933812	      0.85817171	     -0.82319584	     79.92571514	      7.91908676	     -1.29658622	     70.80380008	      4.45490859	    -26.65451266	      0.00000000	    -12.83893633	     -4.57305782	    -19.05368249	      5.99140631	      7.67033684	     -9.54670612	      0.00000000	    -12.76556080	     21.88786520	    -29.48499784	    -32.17332901	    -16.27489755	    -18.67556038	      8.84705349	    103.95973306	     52.14637137	    -19.00137599	     12.48213068	    122.04100743	    106.18319194
      2.00000000	    -23.96053919	     -7.06966382	     -2.63418592	     -4.67516363	      0.86386322	     -0.81391691	     73.08972018	      7.05639825	     -1.70306726	     62.31557397	      3.47141170	    -26.66808233	      0.00000000	    -13.07261764	     -3.76179014	    -17.31513297	     11.53254374	     -2.76296862	    -14.28955991	      0.00000000	    -15.41719877	     21.42421829	    -24.41605153	    -25.48562063	    -15.15050264	    -15.49211685	      9.98488460	    103.47819274	     43.62478414	    -15.97584307	     15.58402519	    122.95829968	    107.34166481
